<?xml version="1.0" encoding="UTF-8"?>
<svg width="13px" height="8px" viewBox="0 0 13 8" version="1.1" xmlns="http://www.w3.org/2000/svg" xmlns:xlink="http://www.w3.org/1999/xlink">
    <title>Path</title>
    <g id="Page-1" stroke="none" stroke-width="1" fill="none" fill-rule="evenodd">
        <g id="Search-Page" transform="translate(-277.000000, -819.000000)" fill="#00DBA9" fill-rule="nonzero">
            <g id="left-arrow" transform="translate(283.500000, 823.000000) scale(-1, -1) rotate(90.000000) translate(-283.500000, -823.000000) translate(280.000000, 817.000000)">
                <path d="M2.35225747,6.00253659 L6.80974267,1.51317073 C6.93247996,1.38985366 7,1.22497561 7,1.04917073 C7,0.873268293 6.93247996,0.708487805 6.80974267,0.58497561 L6.41915327,0.191804878 C6.29660973,0.068097561 6.13279855,0 5.95823454,0 C5.78367053,0 5.6200531,0.068097561 5.49741268,0.191804878 L0.190066184,5.53678049 C0.0669414025,5.66068293 -0.000481766508,5.8262439 0,6.0022439 C-0.000481766508,6.17902439 0.0668445301,6.34439024 0.190066184,6.46839024 L5.49247219,11.8081951 C5.61511261,11.9319024 5.77873004,12 5.95339092,12 C6.12795493,12 6.29157236,11.9319024 6.41430966,11.8081951 L6.80480218,11.4150244 C7.0588984,11.159122 7.0588984,10.7425366 6.80480218,10.4867317 L2.35225747,6.00253659 Z" id="Path"></path>
            </g>
        </g>
    </g>
</svg>