<?xml version="1.0" encoding="UTF-8"?>
<svg width="100px" height="82px" viewBox="0 0 100 82" version="1.1" xmlns="http://www.w3.org/2000/svg" xmlns:xlink="http://www.w3.org/1999/xlink">
    <title>noun_Quote_3653875</title>
    <g id="Page-1" stroke="none" stroke-width="1" fill="none" fill-rule="evenodd">
        <g id="Home-Page" transform="translate(-110.000000, -2994.000000)" fill="#FFFFFF">
            <g id="Group-10" transform="translate(110.000000, 2994.000000)">
                <g id="noun_Quote_3653875" transform="translate(50.000000, 40.887669) scale(-1, 1) translate(-50.000000, -40.887669) ">
                    <path d="M20.0682793,42.3146139 C18.6762293,53.151961 14.9579209,62.6792992 9.01921347,70.954851 C8.72016091,71.3677023 8.78367649,71.9340496 9.16477002,72.2727994 L19.5998518,81.5275499 C20.0074102,81.8874716 20.6293336,81.8504208 20.9945482,81.4481554 C34.7218547,66.1700101 44.3312338,50.7171968 44.3312338,29.428889 L44.3312338,1.05859313 C44.3312338,0.476366908 43.8548669,0 43.2726407,0 L1.05859313,0 C0.476366908,0 0,0.476366908 0,1.05859313 L0,41.2586672 C0,41.8408935 0.476366908,42.3172604 1.05859313,42.3172604 L20.0682793,42.3172604 L20.0682793,42.3146139 Z" id="Path"></path>
                    <path d="M75.7370455,42.3146139 C74.3449955,53.151961 70.6266871,62.6792992 64.6853332,70.954851 C64.3889271,71.3677023 64.4524427,71.9340496 64.8335362,72.2727994 L75.268618,81.5275499 C75.6735299,81.8874716 76.2980998,81.8504208 76.660668,81.4481554 C90.3906209,66.1700101 100,50.7171968 100,29.428889 L100,1.05859313 C100,0.476366908 99.5236331,0 98.9414069,0 L56.7273593,0 C56.1424866,0 55.6661197,0.476366908 55.6661197,1.05859313 L55.6661197,41.2586672 C55.6661197,41.8408935 56.1424866,42.3172604 56.7273593,42.3172604 L75.7370455,42.3172604 L75.7370455,42.3146139 Z" id="Path"></path>
                </g>
            </g>
        </g>
    </g>
</svg>